<svg xmlns="http://www.w3.org/2000/svg" viewBox="0 0 640 360" role="img" aria-labelledby="t d"><title id="t">Componentes y varianza explicada</title><desc id="d">No confundir componente con variable</desc><rect width="640" height="360" fill="#f7faf9"/><text x="32" y="38" font-family="Arial" font-size="22" font-weight="700" fill="#17312d">Componentes y varianza explicada</text><text x="32" y="66" font-family="Arial" font-size="14" fill="#3d5550">No confundir componente con variable</text><line x1="70" y1="300" x2="570" y2="300" stroke="#8aa19b"/><line x1="70" y1="90" x2="70" y2="300" stroke="#8aa19b"/><circle cx="90" cy="260" r="7" fill="#087f73" opacity="0.88"/><circle cx="153" cy="277" r="7" fill="#087f73" opacity="0.88"/><circle cx="216" cy="275" r="7" fill="#087f73" opacity="0.88"/><circle cx="255" cy="251" r="7" fill="#087f73" opacity="0.88"/><circle cx="318" cy="249" r="7" fill="#087f73" opacity="0.88"/><circle cx="381" cy="247" r="7" fill="#087f73" opacity="0.88"/><circle cx="420" cy="223" r="7" fill="#087f73" opacity="0.88"/><circle cx="483" cy="221" r="7" fill="#087f73" opacity="0.88"/><circle cx="106" cy="219" r="7" fill="#2f5d8c" opacity="0.88"/><circle cx="145" cy="195" r="7" fill="#2f5d8c" opacity="0.88"/><circle cx="208" cy="212" r="7" fill="#2f5d8c" opacity="0.88"/><circle cx="271" cy="210" r="7" fill="#2f5d8c" opacity="0.88"/><circle cx="310" cy="186" r="7" fill="#2f5d8c" opacity="0.88"/><circle cx="373" cy="184" r="7" fill="#2f5d8c" opacity="0.88"/><circle cx="436" cy="182" r="7" fill="#2f5d8c" opacity="0.88"/><circle cx="475" cy="158" r="7" fill="#2f5d8c" opacity="0.88"/><circle cx="98" cy="156" r="7" fill="#b24b2a" opacity="0.88"/><circle cx="161" cy="154" r="7" fill="#b24b2a" opacity="0.88"/><circle cx="200" cy="130" r="7" fill="#b24b2a" opacity="0.88"/><circle cx="263" cy="128" r="7" fill="#b24b2a" opacity="0.88"/><circle cx="326" cy="145" r="7" fill="#b24b2a" opacity="0.88"/><circle cx="365" cy="121" r="7" fill="#b24b2a" opacity="0.88"/><path d="M90 270 C210 240 340 185 540 120" fill="none" stroke="#303b45" stroke-width="3" stroke-dasharray="7 7"/><text x="32" y="332" font-family="Arial" font-size="13" fill="#5b706b">Usar la evidencia visible antes de responder.</text></svg>
