<svg xmlns="http://www.w3.org/2000/svg" viewBox="0 0 640 360" role="img" aria-labelledby="t d"><title id="t">Blueprint con loop, parada y traza</title><desc id="d">Cerrar sistema trazable</desc><rect width="640" height="360" fill="#f7faf9"/><text x="32" y="38" font-family="Arial" font-size="22" font-weight="700" fill="#17312d">Blueprint con loop, parada y traza</text><text x="32" y="66" font-family="Arial" font-size="14" fill="#3d5550">Cerrar sistema trazable</text><g transform="translate(70 105)"><rect x="0" y="70" width="120" height="58" rx="8" fill="#fff" stroke="#9fb3ae"/><rect x="190" y="18" width="130" height="58" rx="8" fill="#fff" stroke="#9fb3ae"/><rect x="190" y="122" width="130" height="58" rx="8" fill="#fff" stroke="#9fb3ae"/><rect x="390" y="70" width="120" height="58" rx="8" fill="#fff3c4" stroke="#d8bd55"/><path d="M120 99 L188 50 M120 99 L188 150 M320 50 L390 99 M320 150 L390 99" fill="none" stroke="#8c4a2f" stroke-width="4" marker-end="url(#arrow)"/><defs><marker id="arrow" markerWidth="8" markerHeight="8" refX="7" refY="4" orient="auto"><path d="M0 0 L8 4 L0 8 Z" fill="#8c4a2f"/></marker></defs><text x="26" y="104" font-family="Arial" font-size="14" fill="#17312d">entrada</text><text x="218" y="53" font-family="Arial" font-size="14" fill="#17312d">contexto</text><text x="224" y="157" font-family="Arial" font-size="14" fill="#17312d">tool/skill</text><text x="424" y="104" font-family="Arial" font-size="14" fill="#17312d">traza</text></g><text x="32" y="332" font-family="Arial" font-size="13" fill="#5b706b">Usar la evidencia visible antes de responder.</text></svg>
